<svg id="Capa_1" data-name="Capa 1" xmlns="http://www.w3.org/2000/svg" viewBox="0 0 83 83"><defs><style>.cls-1{fill:#cfe20e;}.cls-2{fill:#fff;}.cls-3{fill:#01262d;}</style></defs><circle class="cls-1" cx="41.5" cy="41.5" r="41.5"/><path class="cls-2" d="M50.62,33.3c-5.83-4.93-11.75-5.75-17.11-2.47-4.9,3-7.29,9.3-5.88,15.48s5.69,9.88,12,10.51A12.49,12.49,0,0,0,52.4,49.53h-10V38.8H71.19V68.05H60.73V58.71c-7.51,8.48-16.45,10.71-26.56,8.5A23.39,23.39,0,0,1,19,56.49c-7.4-11.71-3.82-27.85,7.74-34.95,11.06-6.79,27.59-4.18,33.39,5.37Z" transform="translate(-1.64 -1.5)"/><path class="cls-3" d="M71.19,38.8A47.61,47.61,0,0,1,48.3,60.12a46.61,46.61,0,0,1-22.53,3.53,26.56,26.56,0,0,0,17.82,4.44,26.66,26.66,0,0,0,17.14-9.38v9.34H71.19Z" transform="translate(-1.64 -1.5)"/></svg>