<svg id="Capa_1" data-name="Capa 1" xmlns="http://www.w3.org/2000/svg" viewBox="0 0 206.51 64.88"><defs><style>.cls-1{fill:#cfe20e;}</style></defs><polygon class="cls-1" points="35.2 10.08 31.6 10.08 31.6 6.58 18.3 6.58 18.3 10.08 14.7 10.08 14.7 2.98 35.2 2.98 35.2 10.08"/><rect class="cls-1" x="0.5" y="54.68" width="48.9" height="7.3"/><path class="cls-1" d="M57.1,17.5H19a5.91,5.91,0,0,0-5.9,5.9V46.6A5.91,5.91,0,0,0,19,52.5H57.1A5.91,5.91,0,0,0,63,46.6V23.5A5.87,5.87,0,0,0,57.1,17.5ZM28.4,52.6H24.8V17.5h3.6Zm23.7,0H48.5V17.5h3.6Z" transform="translate(-13.1 -3.82)"/><polygon class="cls-1" points="128.08 49.18 97.48 18.58 118.98 18.58 118.98 8.78 80.88 8.78 80.88 46.98 90.58 46.98 90.58 25.48 121.18 56.08 128.08 49.18"/><path class="cls-1" d="M197.1,68.7c-1.6-2-3.1-4-4.6-6a138.59,138.59,0,0,1-12.4-19.1,49.34,49.34,0,0,1-5-12.9,21.55,21.55,0,0,1,6.8-20.9,21.58,21.58,0,0,1,18-5.8,22.37,22.37,0,0,1,18.7,28.8,75.38,75.38,0,0,1-6.1,13.6,173,173,0,0,1-15,21.9Zm-9.6-42.6a9.6,9.6,0,0,0,19.2.1,9.6,9.6,0,1,0-19.2-.1Z" transform="translate(-13.1 -3.82)"/></svg>