<svg width="156" height="165" viewBox="0 0 156 165" fill="none" xmlns="http://www.w3.org/2000/svg">
<path d="M148.759 146.301V157.345C148.759 160.382 146.4 162.867 143.517 162.867H138.276C135.393 162.867 133.034 160.382 133.034 157.345V146.301" stroke="#01262D" stroke-width="4" stroke-miterlimit="10" stroke-linecap="round" stroke-linejoin="round"/>
<path d="M154 146.301H80.6207" stroke="#01262D" stroke-width="4" stroke-miterlimit="10" stroke-linecap="round" stroke-linejoin="round"/>
<path d="M96.3448 107.645C140.897 107.645 154 110.864 154 124.211V130.772" stroke="#01262D" stroke-width="4" stroke-miterlimit="10" stroke-linecap="round" stroke-linejoin="round"/>
<path d="M133.034 135.256V129.734C133.034 126.696 135.393 124.211 138.276 124.211H154V135.256H133.034Z" stroke="#01262D" stroke-width="4" stroke-miterlimit="10" stroke-linecap="round" stroke-linejoin="round"/>
<path d="M91.1034 124.211H112.069C117.855 124.211 122.552 129.159 122.552 135.256" stroke="#01262D" stroke-width="4" stroke-miterlimit="10" stroke-linecap="round" stroke-linejoin="round"/>
<path d="M143.879 111.543L134.712 82.518C133.763 79.5912 130.723 76.8853 127.84 76.4987C123.778 75.9575 117.499 75.2783 109.789 74.8696" stroke="#01262D" stroke-width="4" stroke-miterlimit="10" stroke-linecap="round" stroke-linejoin="round"/>
<path d="M38.3699 4.65375C42.6417 3.38914 47.144 2.72095 51.7931 2.72095C79.2841 2.72095 101.586 26.2128 101.586 55.1827C101.586 99.709 51.7931 162.867 51.7931 162.867C51.7931 162.867 2 99.709 2 55.1827C2 40.2891 7.89655 26.8368 17.3625 17.2943" stroke="#01262D" stroke-width="4" stroke-miterlimit="10" stroke-linecap="round" stroke-linejoin="round"/>
<path d="M51.7932 85.5553C67.7142 85.5553 80.6207 71.957 80.6207 55.1827C80.6207 38.4083 67.7142 24.8101 51.7932 24.8101C35.8721 24.8101 22.9656 38.4083 22.9656 55.1827C22.9656 71.957 35.8721 85.5553 51.7932 85.5553Z" stroke="#01262D" stroke-width="4" stroke-miterlimit="10" stroke-linecap="round" stroke-linejoin="round"/>
<path d="M12.4828 162.867H51.7931" stroke="#01262D" stroke-width="4" stroke-miterlimit="10" stroke-linecap="round" stroke-linejoin="round"/>
<path d="M2.52414 162.867H2" stroke="#01262D" stroke-width="4" stroke-miterlimit="10" stroke-linecap="round" stroke-linejoin="round"/>
<path d="M80.6207 162.867H138.276" stroke="#01262D" stroke-width="4" stroke-miterlimit="10" stroke-linecap="round" stroke-linejoin="round"/>
<path d="M2.52414 162.867H2" stroke="#01262D" stroke-width="4" stroke-miterlimit="10" stroke-linecap="round" stroke-linejoin="round"/>
<path d="M28.6104 8.28735L28.1702 8.59116" stroke="#01262D" stroke-width="4" stroke-miterlimit="10" stroke-linecap="round" stroke-linejoin="round"/>
<path d="M28.6104 8.28735L28.1702 8.59116" stroke="#01262D" stroke-width="4" stroke-miterlimit="10" stroke-linecap="round" stroke-linejoin="round"/>
</svg>
