<svg width="173" height="162" viewBox="0 0 173 162" fill="none" xmlns="http://www.w3.org/2000/svg">
<path d="M159.903 97.1553H169.153C170.065 97.1553 170.805 97.9315 170.805 98.8956V102.376C170.805 103.337 170.105 104.36 169.236 104.667" stroke="#01262D" stroke-width="4" stroke-miterlimit="10" stroke-linecap="round" stroke-linejoin="round"/>
<path d="M91.5181 147.625V156.327C91.5181 158.248 90.0413 159.807 88.2144 159.807H81.6072C79.7803 159.807 78.3036 158.248 78.3036 156.327V147.625" stroke="#01262D" stroke-width="4" stroke-miterlimit="10" stroke-linecap="round" stroke-linejoin="round"/>
<path d="M167.501 145.885V156.327C167.501 158.248 166.024 159.807 164.198 159.807H157.59C155.763 159.807 154.287 158.248 154.287 156.327V145.885" stroke="#01262D" stroke-width="4" stroke-miterlimit="10" stroke-linecap="round" stroke-linejoin="round"/>
<path d="M85.9019 97.1553H76.6518C75.74 97.1553 75 97.9315 75 98.8956V102.376C75 103.337 75.7004 104.36 76.5692 104.667" stroke="#01262D" stroke-width="4" stroke-miterlimit="10" stroke-linecap="round" stroke-linejoin="round"/>
<path d="M167.501 145.885H78.3036C76.4767 145.885 75 144.325 75 142.404V138.923H170.805V142.404C170.805 144.325 169.328 145.885 167.501 145.885Z" stroke="#01262D" stroke-width="4" stroke-miterlimit="10" stroke-linecap="round" stroke-linejoin="round"/>
<path d="M75 131.962V119.78C75 109.553 86.8369 107.597 122.902 107.597C158.968 107.597 170.805 109.557 170.805 119.78V130.876" stroke="#01262D" stroke-width="4" stroke-miterlimit="10" stroke-linecap="round" stroke-linejoin="round"/>
<path d="M170.805 121.52V131.962H150.983V125.001C150.983 123.076 152.46 121.52 154.287 121.52H164.198" stroke="#01262D" stroke-width="4" stroke-miterlimit="10" stroke-linecap="round" stroke-linejoin="round"/>
<path d="M81.6072 121.52H91.5181C93.345 121.52 94.8217 123.076 94.8217 125.001V131.962H75V121.52" stroke="#01262D" stroke-width="4" stroke-miterlimit="10" stroke-linecap="round" stroke-linejoin="round"/>
<path d="M101.429 131.962V128.481C101.429 124.653 104.402 121.52 108.036 121.52H137.769C141.403 121.52 144.376 124.653 144.376 128.481V131.962" stroke="#01262D" stroke-width="4" stroke-miterlimit="10" stroke-linecap="round" stroke-linejoin="round"/>
<path d="M83.5928 109.331L88.5713 83.1002C89.2882 79.3307 92.605 75.0529 96.2093 74.4438C101.125 73.6015 108.069 72.7939 122.902 72.7939C137.736 72.7939 144.68 73.6015 149.599 74.4438C153.203 75.0564 156.52 79.3307 157.237 83.1002L162.222 109.369" stroke="#01262D" stroke-width="4" stroke-miterlimit="10" stroke-linecap="round" stroke-linejoin="round"/>
<path d="M2 63.1875L15.807 58.4497" stroke="#01262D" stroke-width="4" stroke-miterlimit="10" stroke-linecap="round" stroke-linejoin="round"/>
<path d="M2 17.2581L23.0834 9.76807" stroke="#01262D" stroke-width="4" stroke-miterlimit="10" stroke-linecap="round" stroke-linejoin="round"/>
<path d="M13.0201 78.2979L33.998 71.0991" stroke="#01262D" stroke-width="4" stroke-miterlimit="10" stroke-linecap="round" stroke-linejoin="round"/>
<path d="M107.144 100.714H107.508" stroke="#01262D" stroke-width="4" stroke-miterlimit="10" stroke-linecap="round" stroke-linejoin="round"/>
<path d="M2 100.714H100.231" stroke="#01262D" stroke-width="4" stroke-miterlimit="10" stroke-linecap="round" stroke-linejoin="round"/>
<path d="M48.9256 55.4405L44.054 69.8802C43.5483 71.379 44.8944 72.8356 46.3279 72.3449L50.9047 70.781C51.2686 70.6545 51.5887 70.413 51.8107 70.0872L73.1087 39.3833" stroke="#01262D" stroke-width="4" stroke-miterlimit="10" stroke-linecap="round" stroke-linejoin="round"/>
<path d="M89.6697 17.2044L69.6378 24.062L40.6267 2.55777C40.1683 2.18978 39.5717 2.11312 39.0187 2.30478L33.4486 4.20987C32.3426 4.59319 31.8587 6.00381 32.4844 7.03877L47.1464 31.7629L24.8988 39.3756C22.5813 40.1729 20.0636 39.7052 18.1536 38.0991L11.6667 32.702C11.1973 32.3033 10.5534 32.196 9.96761 32.3992L6.43856 33.6028C5.22703 34.0206 4.77953 35.5424 5.56539 36.6042L12.6526 46.3098C17.3823 52.7113 25.3827 55.3332 32.6809 52.8339L104.237 28.336C106.729 27.4812 108.083 24.6791 107.271 22.0572C106.78 20.4588 105.569 19.259 104.041 18.7722L98.1031 17.0166C95.3271 16.1963 92.4056 16.2691 89.6697 17.2044Z" stroke="#01262D" stroke-width="4" stroke-miterlimit="10" stroke-linecap="round" stroke-linejoin="round"/>
</svg>
