<svg width="165" height="174" viewBox="0 0 165 174" fill="none" xmlns="http://www.w3.org/2000/svg">
<path d="M157 153.236V164.826C157 168.03 154.541 170.62 151.5 170.62H146C142.959 170.62 140.5 168.03 140.5 164.826V153.236" stroke="#01262D" stroke-width="5" stroke-miterlimit="10" stroke-linecap="round" stroke-linejoin="round"/>
<path d="M162.5 170.62H85.5" stroke="#01262D" stroke-width="5" stroke-miterlimit="10" stroke-linecap="round" stroke-linejoin="round"/>
<path d="M162.5 153.236H85.5" stroke="#01262D" stroke-width="5" stroke-miterlimit="10" stroke-linecap="round" stroke-linejoin="round"/>
<path d="M110.234 112.713C150.384 113.131 162.5 116.915 162.5 130.057V136.941" stroke="#01262D" stroke-width="5" stroke-miterlimit="10" stroke-linecap="round" stroke-linejoin="round"/>
<path d="M140.5 141.647V135.852C140.5 132.665 142.975 130.057 146 130.057H162.5V141.647H140.5Z" stroke="#01262D" stroke-width="5" stroke-miterlimit="10" stroke-linecap="round" stroke-linejoin="round"/>
<path d="M99.25 130.057H118.5C124.572 130.057 129.5 135.249 129.5 141.647" stroke="#01262D" stroke-width="5" stroke-miterlimit="10" stroke-linecap="round" stroke-linejoin="round"/>
<path d="M151.88 116.764L142.26 86.3064C141.265 83.2351 138.075 80.3957 135.05 79.9901C130.248 79.3526 122.515 78.5298 112.995 78.1357" stroke="#01262D" stroke-width="5" stroke-miterlimit="10" stroke-linecap="round" stroke-linejoin="round"/>
<path d="M101.247 37.4912L108.452 28.6079C111.416 24.9572 111.009 19.4753 107.544 16.3577C104.084 13.2285 98.865 13.6689 95.917 17.3138L91 23.3694" stroke="#01262D" stroke-width="5" stroke-miterlimit="10" stroke-linecap="round"/>
<path d="M91 117.077V124.262C91 130.636 86.05 135.852 80 135.852H52.4945" stroke="#01262D" stroke-width="5" stroke-miterlimit="10" stroke-linecap="round" stroke-linejoin="round"/>
<path d="M19.5 80.8015V14.1616C19.5 7.78732 24.45 2.57202 30.5 2.57202H80C86.05 2.57202 91 7.78732 91 14.1616V51.8276" stroke="#01262D" stroke-width="5" stroke-miterlimit="10" stroke-linecap="round" stroke-linejoin="round"/>
<path d="M76.7055 147.453C71.838 153.914 65.931 157.576 58 158.677V170.62" stroke="#01262D" stroke-width="5" stroke-miterlimit="10" stroke-linecap="round" stroke-linejoin="round"/>
<path d="M99.03 53.3342C95.565 50.2051 90.34 50.6686 87.425 54.3193L86.435 55.5942C83.465 59.2449 83.905 64.692 87.37 67.8212C88.91 69.2119 90.835 69.9073 92.705 69.9073C95.07 69.9073 97.38 68.8642 98.975 66.8361L99.91 65.6192C102.88 61.9684 102.495 56.4634 99.03 53.3342Z" stroke="#01262D" stroke-width="5" stroke-miterlimit="10"/>
<path d="M100.9 72.8627C97.4349 69.7335 92.21 70.1391 89.295 73.7898L85.115 78.8892C82.145 82.54 82.585 87.987 86.05 91.1162C87.59 92.507 89.46 93.2023 91.385 93.2023C93.695 93.2023 96.0049 92.1593 97.6549 90.1891L101.835 85.0896C104.805 81.4389 104.365 75.9339 100.9 72.8627Z" stroke="#01262D" stroke-width="5" stroke-miterlimit="10"/>
<path d="M100.68 96.6792C97.2151 93.55 91.9901 94.0136 89.0201 97.6643L84.8401 102.706C81.8701 106.356 82.3101 111.862 85.7751 114.991C87.3151 116.381 89.2401 117.077 91.1101 117.077C93.4751 117.077 95.7851 116.034 97.3801 114.006L101.56 108.964C104.53 105.313 104.145 99.8084 100.68 96.6792Z" stroke="#01262D" stroke-width="5" stroke-miterlimit="10"/>
<path d="M41.236 135.858C39.102 107.318 19.5 94.1352 19.5 94.1352V83.1657V66.7085C19.5 46.2472 5.75 49.1445 3 49.1445V170.62" stroke="#01262D" stroke-width="5" stroke-miterlimit="10" stroke-linecap="round" stroke-linejoin="round"/>
<path d="M74.291 50.8367C74.291 67.2069 55.25 89.4936 55.25 89.4936C55.25 89.4936 36.209 67.2069 36.209 50.8367C36.209 40.1801 44.7395 31.5459 55.25 31.5459C65.7605 31.5459 74.291 40.1801 74.291 50.8367Z" stroke="#01262D" stroke-width="5" stroke-miterlimit="10" stroke-linecap="round" stroke-linejoin="round"/>
<path d="M55.25 57.2978C58.2876 57.2978 60.75 54.7034 60.75 51.503C60.75 48.3027 58.2876 45.7083 55.25 45.7083C52.2124 45.7083 49.75 48.3027 49.75 51.503C49.75 54.7034 52.2124 57.2978 55.25 57.2978Z" stroke="#01262D" stroke-width="5" stroke-miterlimit="10" stroke-linecap="round" stroke-linejoin="round"/>
<path d="M124 66.3145H110.25" stroke="#01262D" stroke-width="5" stroke-miterlimit="10" stroke-linecap="round" stroke-linejoin="round"/>
<path d="M63.5 14.1616H46.9945" stroke="#01262D" stroke-width="5" stroke-miterlimit="10" stroke-linecap="round" stroke-linejoin="round"/>
</svg>
