<svg width="59" height="59" viewBox="0 0 59 59" fill="none" xmlns="http://www.w3.org/2000/svg">
<path fill-rule="evenodd" clip-rule="evenodd" d="M49.2572 2.43555C53.2929 2.43555 56.5643 5.70707 56.5643 9.74267V48.714C56.5643 52.7497 53.2929 56.0211 49.2572 56.0211H10.2859C6.25028 56.0211 2.97876 52.7497 2.97876 48.714V9.74267C2.97876 5.70707 6.25028 2.43555 10.2859 2.43555H49.2572ZM49.2572 7.30696C50.6025 7.30696 51.6929 8.39748 51.6929 9.74267V48.714C51.6929 50.0592 50.6025 51.1497 49.2572 51.1497H37.0787V34.0995H42.1357C43.184 34.0995 44.1147 33.4287 44.4464 32.434L45.5255 29.1969C45.9198 28.0139 45.0393 26.7924 43.7925 26.7924H37.0787V21.921C37.0787 20.7032 38.2965 19.4853 39.5144 19.4853H44.3858C45.731 19.4853 46.8215 18.3948 46.8215 17.0496V15.3787C46.8215 14.5919 46.319 13.8865 45.5581 13.6858C42.3654 12.8432 39.5144 12.8432 39.5144 12.8432C33.4251 12.8432 29.7715 17.0496 29.7715 20.7032V26.7924H24.9001C23.5549 26.7924 22.4644 27.8829 22.4644 29.2281V31.6638C22.4644 33.009 23.5549 34.0995 24.9001 34.0995H29.7715V51.1497H10.2859C8.94069 51.1497 7.85018 50.0592 7.85018 48.714V9.74267C7.85018 8.39748 8.94069 7.30696 10.2859 7.30696H49.2572Z" fill="#CFE20E"/>
</svg>
