<?xml version="1.0" encoding="utf-8"?>
<!-- Generator: Adobe Illustrator 24.3.0, SVG Export Plug-In . SVG Version: 6.00 Build 0)  -->
<svg version="1.1" id="Capa_1" xmlns="http://www.w3.org/2000/svg" xmlns:xlink="http://www.w3.org/1999/xlink" x="0px" y="0px"
	 viewBox="0 0 151 148" style="enable-background:new 0 0 151 148;" xml:space="preserve">
<style type="text/css">
	.st0{clip-path:url(#SVGID_2_);fill:#FFFFFF;}
	.st1{clip-path:url(#SVGID_2_);}
	.st2{fill-rule:evenodd;clip-rule:evenodd;fill:#67C15E;}
</style>
<g>
	<defs>
		<rect id="SVGID_1_" width="151" height="148"/>
	</defs>
	<clipPath id="SVGID_2_">
		<use xlink:href="#SVGID_1_"  style="overflow:visible;"/>
	</clipPath>
	<circle class="st0" cx="75" cy="74" r="64"/>
	<g class="st1">
		<path class="st2" d="M73.8,0C33.1,0,0,33.2,0,74c0,16.2,5.2,31.2,14.1,43.4l-9.2,27.5l28.4-9.1c11.7,7.8,25.6,12.2,40.6,12.2
			c40.7,0,73.8-33.2,73.8-74C147.7,33.2,114.6,0,73.8,0L73.8,0z M53.2,37.6c-1.4-3.4-2.5-3.6-4.7-3.7c-0.7,0-1.6-0.1-2.5-0.1
			c-2.8,0-5.8,0.8-7.6,2.6c-2.2,2.2-7.6,7.4-7.6,18s7.7,20.9,8.8,22.3c1.1,1.4,15.1,23.5,36.8,32.5c17,7,22,6.4,25.9,5.6
			c5.7-1.2,12.7-5.4,14.5-10.4c1.8-5.1,1.8-9.4,1.3-10.3c-0.5-0.9-2-1.4-4.1-2.5c-2.2-1.1-12.7-6.3-14.7-7c-2-0.7-3.8-0.5-5.3,1.6
			c-2.1,2.9-4.1,5.9-5.8,7.7c-1.3,1.4-3.4,1.6-5.2,0.8c-2.4-1-9.1-3.3-17.3-10.7c-6.4-5.7-10.7-12.8-12-14.9
			c-1.3-2.2-0.1-3.4,0.9-4.6c1.1-1.4,2.1-2.3,3.2-3.6c1.1-1.3,1.7-1.9,2.4-3.4c0.7-1.4,0.2-2.9-0.3-4C59.3,52.5,55,41.9,53.2,37.6z"
			/>
	</g>
</g>
</svg>
