<svg width="59" height="60" viewBox="0 0 59 60" fill="none" xmlns="http://www.w3.org/2000/svg">
<g clip-path="url(#clip0_99_360)">
<path fill-rule="evenodd" clip-rule="evenodd" d="M17.1561 1.06282C12.3981 1.2775 8.27404 2.44079 4.94398 5.75679C1.60229 9.09021 0.453455 13.2306 0.238237 17.9391C0.104452 20.878 -0.67785 43.0805 1.59066 48.9031C3.12045 52.8312 6.13342 55.8515 10.0975 57.3862C11.9472 58.1057 14.0587 58.5927 17.1561 58.7349C43.0549 59.9069 52.6554 59.2688 56.7038 48.9031C57.4221 47.0579 57.9166 44.9483 58.0533 41.8585C59.237 15.8933 57.8614 10.2652 53.3476 5.75679C49.7674 2.18548 45.5561 -0.245593 17.1561 1.06282ZM17.3945 53.5128C14.5589 53.3852 13.0204 52.9127 11.9938 52.5152C9.41115 51.5114 7.47129 49.5796 6.47373 47.0121C4.74617 42.5878 5.31914 21.5748 5.47328 18.1746C5.62452 14.8441 6.29924 11.8002 8.64919 9.45031C11.5575 6.54915 15.3151 5.12732 40.8998 6.28199C44.2386 6.43284 47.2895 7.10619 49.6453 9.45031C52.5536 12.3514 53.9961 16.1379 52.8212 41.6245C52.6932 44.4531 52.2192 45.988 51.8207 47.0121C49.1887 53.7572 43.1334 54.6936 17.3945 53.5128ZM41.1819 14.4112C41.1819 16.3317 42.7438 17.8935 44.672 17.8935C46.6002 17.8935 48.1649 16.3317 48.1649 14.4112C48.1649 12.4906 46.6002 10.9303 44.672 10.9303C42.7438 10.9303 41.1819 12.4906 41.1819 14.4112ZM14.2128 29.8974C14.2128 38.1251 20.8992 44.7957 29.1472 44.7957C37.3953 44.7957 44.0816 38.1251 44.0816 29.8974C44.0816 21.6698 37.3953 15.0034 29.1472 15.0034C20.8992 15.0034 14.2128 21.6698 14.2128 29.8974ZM19.4537 29.8974C19.4537 24.5593 23.793 20.2283 29.1472 20.2283C34.5015 20.2283 38.8408 24.5593 38.8408 29.8974C38.8408 35.2384 34.5015 39.5708 29.1472 39.5708C23.793 39.5708 19.4537 35.2384 19.4537 29.8974Z" fill="#CFE20E"/>
</g>
<defs>
<clipPath id="clip0_99_360">
<rect width="58.457" height="58.457" fill="white" transform="translate(0 0.704102)"/>
</clipPath>
</defs>
</svg>
