<?xml version="1.0" encoding="utf-8"?>
<!-- Generator: Adobe Illustrator 24.3.0, SVG Export Plug-In . SVG Version: 6.00 Build 0)  -->
<svg version="1.1" id="Capa_1" xmlns="http://www.w3.org/2000/svg" xmlns:xlink="http://www.w3.org/1999/xlink" x="0px" y="0px"
	 viewBox="0 0 206.5 207.9" style="enable-background:new 0 0 206.5 207.9;" xml:space="preserve">
<style type="text/css">
	.st0{fill:#CFE20E;}
	.st1{fill:#B0CB0A;stroke:#B0CB0A;stroke-width:1.8168;stroke-miterlimit:10;}
</style>
<polygon class="st0" points="35.2,153.1 31.6,153.1 31.6,149.6 18.3,149.6 18.3,153.1 14.7,153.1 14.7,146 35.2,146 "/>
<rect x="0.5" y="197.7" class="st0" width="48.9" height="7.3"/>
<path class="st0" d="M44,156.7H5.9c-3.3,0-5.9,2.6-5.9,5.9v23.2c0,3.3,2.6,5.9,5.9,5.9H44c3.3,0,5.9-2.6,5.9-5.9v-23.1
	c0.1-3.2-2.5-5.9-5.7-6C44.1,156.7,44.1,156.7,44,156.7z M15.3,191.8h-3.6v-35.1h3.6V191.8z M39,191.8h-3.6v-35.1H39V191.8z"/>
<polygon class="st0" points="128.1,192.2 97.5,161.6 119,161.6 119,151.8 80.9,151.8 80.9,190 90.6,190 90.6,168.5 121.2,199.1 "/>
<path class="st0" d="M184,207.9c-1.6-2-3.1-4-4.6-6c-4.7-6-8.8-12.4-12.4-19.1c-2.3-4-3.9-8.4-5-12.9c-1.7-7.7,0.9-15.7,6.8-20.9
	c4.8-4.6,11.4-6.7,18-5.8c12.3,1.5,21,12.6,19.5,24.9c-0.2,1.3-0.4,2.6-0.8,3.9c-1.6,4.7-3.6,9.3-6.1,13.6c-4.4,7.7-9.4,15-15,21.9
	L184,207.9z M174.4,165.3c0,5.3,4.2,9.6,9.6,9.6c5.3,0,9.6-4.2,9.6-9.5c0-5.3-4.2-9.6-9.6-9.7C178.7,155.7,174.4,160,174.4,165.3
	L174.4,165.3z"/>
<g>
	<path class="st1" d="M80,123c0-2.3,0.2-4.5,0.5-6.8l1.3,0.2c-0.4,2.6-0.6,5.3-0.5,7.9l-1.3,0C80,123.9,80,123.5,80,123z
		 M82.5,108.3c0.9-2.6,2.1-5.1,3.4-7.4l1.1,0.7c-1.3,2.3-2.4,4.7-3.3,7.2L82.5,108.3z M90.7,94.2c1.8-2,3.8-3.9,5.9-5.6l0.8,1
		c-2.1,1.6-4,3.5-5.8,5.5L90.7,94.2z M103.5,84.1c2.4-1.3,5-2.3,7.6-3.1l0.4,1.3c-2.5,0.8-5,1.8-7.3,3L103.5,84.1z M117.4,49
		c0-0.6,0.1-1.2,0.2-1.7c0.1-0.5,0.3-1,0.5-1.5l1.2,0.5c-0.2,0.4-0.3,0.8-0.4,1.3c-0.1,0.5-0.2,1-0.2,1.4c0,1.5,0.5,3,1.4,4.3
		l-1.1,0.7C117.9,52.5,117.4,50.8,117.4,49z M119.1,79.3c1.7-0.2,3.6-0.3,5.3-0.4c0.9-0.1,1.9-0.1,2.8-0.2l0.1,1.3
		c-0.9,0.1-1.9,0.1-2.8,0.2c-1.7,0.1-3.5,0.2-5.2,0.4L119.1,79.3z M124.4,40.3c1.2-0.4,2.4-0.6,3.6-0.6h0c1.6,0,3.2,0.3,4.8,0.9
		l-0.4,1.2c-1.4-0.5-2.9-0.8-4.3-0.8h0c-1.1,0-2.1,0.2-3.2,0.5L124.4,40.3z M125.6,59.2L126,58c0.7,0.3,1.4,0.4,2.1,0.6
		c0.8,0.1,1.6,0.2,2.4,0.2c1,0,2.1-0.1,3.1-0.3l0.3,1.3c-1.1,0.2-2.3,0.3-3.4,0.3c-0.9,0-1.8-0.1-2.6-0.2
		C127.1,59.7,126.3,59.5,125.6,59.2z M134.3,7.1l0.9-0.9c2.1,2.1,3.8,4.1,5.4,6l-1,0.8C138.1,11.1,136.3,9.2,134.3,7.1z M135,77.5
		c1.8-0.5,3.4-1.3,4.8-2.2c0.7-0.5,1.3-1,1.9-1.6l0.9,0.9c-0.6,0.6-1.3,1.2-2.1,1.7c-1.5,1-3.2,1.8-5.2,2.4L135,77.5z M138.8,45.9
		l0.9-1c0.1,0.1,0.1,0.1,0.2,0.2c1.9,1.8,3.6,3.9,4.8,6.2c0.4-0.6,0.9-1.1,1.2-1.7l1.1,0.7c-1.5,2.3-3.4,4.4-5.7,6l-0.8-1.1
		c1.5-1.1,2.8-2.3,3.9-3.7l-0.9,0.5c-1.2-2.2-2.8-4.2-4.6-6C139,46.1,138.9,46,138.8,45.9z M144.2,19.6l1.1-0.7
		c1.3,2.2,2.4,4.5,3.2,6.7c0.1,0.2,0.2,0.5,0.3,0.7l-1.2,0.4c-0.1-0.2-0.2-0.4-0.2-0.7C146.5,23.9,145.5,21.7,144.2,19.6z
		 M145.6,67.1c0.5-1.7,0.8-3.5,0.8-5.3c0-0.3,0-0.7,0-1c0-0.5-0.1-0.9-0.1-1.4l1.3-0.2c0.1,0.5,0.1,1,0.1,1.5c0,0.4,0,0.8,0,1.1
		c0,1.9-0.3,3.8-0.9,5.7L145.6,67.1z M148.8,42.3c0.3-1.7,0.5-3.5,0.5-5.3c0-0.8,0-1.7-0.1-2.6l1.3-0.1c0.1,0.9,0.1,1.8,0.1,2.7
		c0,1.9-0.2,3.8-0.5,5.5L148.8,42.3z"/>
	<g>
		<polygon class="st1" points="75.9,128.6 81.1,129.7 85.5,126.7 83,139 		"/>
	</g>
</g>
</svg>
