<svg width="164" height="172" viewBox="0 0 164 172" fill="none" xmlns="http://www.w3.org/2000/svg">
<path d="M62.931 151.819V163.3C62.931 166.474 60.4956 169.04 57.4827 169.04H46.5862" stroke="#01262D" stroke-width="5" stroke-miterlimit="10" stroke-linecap="round" stroke-linejoin="round"/>
<path d="M155.552 151.819V163.3C155.552 166.474 153.116 169.04 150.103 169.04H144.655C141.642 169.04 139.207 166.474 139.207 163.3V151.819" stroke="#01262D" stroke-width="5" stroke-miterlimit="10" stroke-linecap="round" stroke-linejoin="round"/>
<path d="M161 151.819H57.4828" stroke="#01262D" stroke-width="5" stroke-miterlimit="10" stroke-linecap="round" stroke-linejoin="round"/>
<path d="M57.4609 114.083C66.8047 112.228 80.8068 111.637 101.069 111.637C147.379 111.637 161 114.984 161 128.858V135.677" stroke="#01262D" stroke-width="5" stroke-miterlimit="10" stroke-linecap="round" stroke-linejoin="round"/>
<path d="M139.207 140.339V134.598C139.207 131.441 141.659 128.858 144.655 128.858H161V140.339H139.207Z" stroke="#01262D" stroke-width="5" stroke-miterlimit="10" stroke-linecap="round" stroke-linejoin="round"/>
<path d="M54.7586 128.858H57.4827C60.4793 128.858 62.931 131.441 62.931 134.598V140.339H46.5862" stroke="#01262D" stroke-width="5" stroke-miterlimit="10" stroke-linecap="round" stroke-linejoin="round"/>
<path d="M73.8275 140.339C73.8275 134.001 78.7092 128.858 84.7241 128.858H117.414C123.429 128.858 128.31 134.001 128.31 140.339" stroke="#01262D" stroke-width="5" stroke-miterlimit="10" stroke-linecap="round" stroke-linejoin="round"/>
<path d="M150.479 115.69L140.95 85.519C139.964 82.4766 136.804 79.6639 133.808 79.2621C127.33 78.401 115.447 77.1956 101.064 77.1956C86.6801 77.1956 74.8028 78.401 68.3194 79.2621C65.3228 79.6639 62.1628 82.4766 61.1767 85.519L56.562 100.157" stroke="#01262D" stroke-width="5" stroke-miterlimit="10" stroke-linecap="round" stroke-linejoin="round"/>
<path d="M46.5862 169.04V77.1956C50.6125 77.1956 54.1321 74.8937 56.0172 71.4668C56.9488 69.7734 57.4828 67.8102 57.4828 65.715V57.1046C57.4828 49.2117 51.3534 42.7539 43.8621 42.7539H16.6207C9.09662 42.7539 3 49.1773 3 57.1046V65.715C3 72.0523 7.88166 77.1956 13.8966 77.1956V105.897L3 169.04" stroke="#01262D" stroke-width="5" stroke-miterlimit="10" stroke-linecap="round" stroke-linejoin="round"/>
<path d="M30.2414 31.2734C37.7639 31.2734 43.8621 24.8484 43.8621 16.9227C43.8621 8.99705 37.7639 2.57202 30.2414 2.57202C22.7189 2.57202 16.6207 8.99705 16.6207 16.9227C16.6207 24.8484 22.7189 31.2734 30.2414 31.2734Z" stroke="#01262D" stroke-width="5" stroke-miterlimit="10" stroke-linecap="round" stroke-linejoin="round"/>
<path d="M46.5863 68.5852V66.754C46.5863 63.2066 43.5625 60.5029 40.2445 61.0941L20.2384 64.6014C16.9204 65.1812 13.8966 62.489 13.8966 58.9358" stroke="#01262D" stroke-width="5" stroke-miterlimit="10" stroke-linecap="round" stroke-linejoin="round"/>
<path d="M35.6897 169.04L30.2414 103.027L13.8966 169.04" stroke="#01262D" stroke-width="5" stroke-miterlimit="10" stroke-linecap="round" stroke-linejoin="round"/>
<path d="M24.7932 77.1958H46.5863" stroke="#01262D" stroke-width="5" stroke-miterlimit="10" stroke-linecap="round" stroke-linejoin="round"/>
</svg>
