<?xml version="1.0" encoding="utf-8"?>
<!-- Generator: Adobe Illustrator 24.3.0, SVG Export Plug-In . SVG Version: 6.00 Build 0)  -->
<svg version="1.1" id="Capa_1" xmlns="http://www.w3.org/2000/svg" xmlns:xlink="http://www.w3.org/1999/xlink" x="0px" y="0px"
	 viewBox="0 0 698.9 165.4" style="enable-background:new 0 0 698.9 165.4;" xml:space="preserve">
<style type="text/css">
	.st0{fill:#CFE20E;}
	.st1{fill:#FFFFFF;}
	.st2{fill:#ACBBC3;}
</style>
<path class="st0" d="M220.4,127.5c-8.7,0-15.9-1.3-21.8-4c-5.6-2.5-10.3-6.8-13.2-12.3c-2.9-5.5-4.4-12.6-4.4-21.3
	c0-8.8,1.5-16.1,4.6-21.7c2.9-5.5,7.5-9.8,13.1-12.4c5.7-2.7,12.5-4,20.4-4c2.8,0,5.6,0.2,8.4,0.5c2.8,0.4,5.5,0.9,8.2,1.6v9
	c-2.7-0.7-5.4-1.3-8.2-1.6c-2.5-0.3-5.1-0.5-7.7-0.5c-5.1-0.1-10.3,0.8-15,2.8c-4.1,1.9-7.5,5.2-9.4,9.3c-2.2,4.3-3.2,10-3.2,17.1
	c0,6.8,1,12.3,3.1,16.5c1.9,4,5.1,7.3,9.2,9.2c4.1,1.9,9.2,2.9,15.3,2.9c2.3,0,4.4-0.1,6.5-0.3c2.1-0.2,4-0.4,5.8-0.7l-4.4,4.2V90.8
	h10v35.3c-3.1,0.5-6.1,0.9-8.8,1.1S223.2,127.5,220.4,127.5z"/>
<path class="st0" d="M273.3,127.8c-4.4,0.1-8.9-0.9-12.8-3c-3.7-2.1-6.7-5.3-8.4-9.2c-2-4.1-3-9.4-3-15.9c0-6.5,1-11.8,3-16
	c1.7-3.9,4.7-7.1,8.4-9.2c8.1-4,17.7-4,25.8,0c3.7,2.1,6.6,5.3,8.4,9.2c2,4.1,3,9.4,3,15.9s-1,11.8-3,15.9c-1.7,3.9-4.7,7.2-8.4,9.3
	C282.2,126.9,277.8,127.9,273.3,127.8z M273.3,119.6c2.5,0.1,5-0.6,7.2-1.8c2.2-1.5,3.9-3.6,4.7-6.2c1.1-2.9,1.6-6.8,1.6-11.8
	s-0.6-9-1.6-12c-0.8-2.5-2.5-4.7-4.7-6.2c-2.2-1.3-4.7-1.9-7.2-1.8c-2.5-0.1-5,0.6-7.3,1.8c-2.2,1.4-3.9,3.6-4.7,6.1
	c-1.1,2.9-1.6,6.8-1.6,11.8s0.5,9,1.6,12c0.8,2.6,2.5,4.7,4.7,6.2C268.2,119,270.7,119.6,273.3,119.6z"/>
<path class="st0" d="M325.9,126.8V66.3h-23.4V52.8h63v13.5h-23.3v60.6H325.9z"/>
<path class="st0" d="M365.3,126.8V72.1h13.1l1.2,7.1h0.8c1.4-2.6,3.5-4.6,6.1-5.9c2.6-1.3,5.5-1.9,8.4-1.9c0.8,0,1.6,0,2.4,0.1
	c0.7,0.1,1.4,0.2,2,0.3v14.4c-0.9-0.2-1.8-0.3-2.7-0.3c-1-0.1-1.9-0.1-2.7-0.1c-1.6,0-3.2,0.2-4.8,0.6c-1.6,0.4-3.1,1-4.4,1.7
	c-1.3,0.7-2.5,1.7-3.5,2.9v35.9L365.3,126.8z"/>
<path class="st0" d="M419,127.8c-5.6,0-10-1.5-13.1-4.4c-3.1-2.9-4.8-7.1-4.7-11.4c0-5.2,1.8-9.2,5.4-12.1s9.4-4.6,17.4-5.2l11.5-1
	l1.7,8.8l-11.6,1c-3.1,0.2-5.3,0.9-6.6,2.1c-1.4,1.2-2.1,3-2,4.8c-0.1,1.7,0.6,3.4,1.8,4.6c1.5,1.2,3.5,1.8,5.4,1.6
	c1.5,0,3.1-0.3,4.5-0.8c1.6-0.5,3-1.5,4.2-2.7v-20c0.1-2-0.3-4.1-1.2-5.9c-0.9-1.5-2.3-2.6-4-3.1c-2.4-0.7-4.8-1-7.3-0.9
	c-2.4,0-4.8,0.2-7.1,0.5c-2.6,0.3-5.2,0.9-7.7,1.7v-12c2.9-0.8,5.8-1.4,8.8-1.7c2.9-0.4,5.9-0.6,8.9-0.6c4.9-0.1,9.7,0.6,14.3,2.2
	c3.5,1.3,6.5,3.8,8.2,7.2c1.8,3.3,2.7,7.9,2.7,13.7v32.6h-13.1l-1.1-5.4h-0.8c-1.6,2.2-3.8,3.9-6.3,4.9
	C424.6,127.3,421.8,127.9,419,127.8z"/>
<path class="st0" d="M459.9,126.8V72.1h13.2l1,5.6h0.8c2-2.1,4.5-3.7,7.2-4.8c2.8-1.1,5.9-1.7,8.9-1.7c3.3-0.1,6.6,0.7,9.6,2.1
	c2.9,1.5,5.2,3.9,6.6,6.9c1.6,3.2,2.4,7.3,2.4,12.5v34.1h-16V93.7c0-3.3-0.7-5.6-2-6.9c-1.6-1.3-3.6-2-5.7-1.9
	c-1.2,0-2.4,0.2-3.6,0.5c-1.2,0.3-2.4,0.8-3.5,1.5c-1.1,0.7-2.1,1.5-3,2.5v37.4H459.9z"/>
<path class="st0" d="M537.2,127.9c-3.1,0-6.1-0.2-9.1-0.6c-2.8-0.4-5.6-1-8.3-1.8v-11.7c2.7,0.8,5.5,1.4,8.4,1.8
	c3,0.4,5.9,0.6,8.9,0.6c3.6,0,6.2-0.5,7.6-1.4c1.4-0.8,2.3-2.4,2.2-4c0.1-1.1-0.3-2.3-1.1-3.1c-1.1-0.9-2.5-1.4-3.9-1.6l-8.9-1.6
	c-5.1-1-8.9-2.8-11.2-5.4c-2.3-2.6-3.5-6.1-3.5-10.5c-0.1-5,2.3-9.7,6.3-12.6c4.2-3.2,10.7-4.8,19.4-4.8c2.6,0,5.2,0.1,7.8,0.4
	c2.3,0.3,4.6,0.7,6.8,1.2v11.7c-2.2-0.6-4.5-1.1-6.8-1.4c-2.4-0.3-4.9-0.5-7.3-0.4c-2.4-0.1-4.7,0.2-7,0.8c-1.3,0.3-2.5,1-3.4,2
	c-0.6,0.8-1,1.7-1,2.7c0,1.1,0.4,2.1,1.1,2.8c1.1,0.9,2.4,1.5,3.8,1.7l8.9,1.6c4.9,0.9,8.5,2.6,11,5s3.7,6,3.7,10.8
	c0.2,5.1-2.2,9.9-6.4,12.9C551,126.3,545,127.9,537.2,127.9z"/>
<path class="st0" d="M564.8,84.6V72.1h39.1v12.6H564.8z M573.7,126.8V68.2c-0.1-4.3,0.8-8.6,2.8-12.5c1.8-3.5,4.7-6.3,8.3-8
	c4.2-2,8.8-2.9,13.5-2.8c1.4,0,2.8,0,4.1,0.2c1.3,0.1,2.6,0.2,3.8,0.5V58c-1-0.1-1.9-0.2-2.8-0.3s-1.8-0.1-2.8-0.1
	c-3.9,0-6.7,0.8-8.5,2.3c-1.8,1.6-2.7,4-2.7,7.5v59.4L573.7,126.8z"/>
<path class="st0" d="M637,127.9c-6.9,0-12.5-1-17-3c-4.3-1.8-7.8-5.1-9.9-9.3c-2.1-4.2-3.2-9.6-3.2-16.2c-0.1-5.3,0.9-10.5,3-15.3
	c1.8-4,4.8-7.4,8.7-9.6c4.2-2.3,9-3.4,13.8-3.2c4.6-0.2,9.1,1,13.1,3.3c3.6,2.3,6.4,5.7,8,9.7c1.9,5,2.8,10.3,2.7,15.7v4.1H616v-9.2
	h27.8l-2.5,1c0.1-2.9-0.3-5.8-1-8.6c-0.4-1.8-1.5-3.4-3-4.6c-1.5-0.9-3.2-1.4-5-1.3c-1.8-0.1-3.6,0.4-5.1,1.3
	c-1.5,1.1-2.7,2.7-3.2,4.5c-0.8,2.8-1.2,5.7-1.1,8.6v6.4c-0.1,2.7,0.4,5.5,1.5,8c1.1,2,2.9,3.6,5.1,4.3c3.2,1,6.5,1.4,9.9,1.3
	c2.3,0,4.5-0.2,6.7-0.5c2.3-0.3,4.7-0.7,7.1-1.3v12c-2.7,0.6-5.5,1.1-8.3,1.4C642.2,127.7,639.6,127.9,637,127.9z"/>
<path class="st0" d="M664.9,126.8V72.1H678l1.2,7.1h0.8c1.4-2.6,3.5-4.6,6.1-5.9c2.6-1.3,5.5-1.9,8.3-1.9c0.8,0,1.6,0,2.4,0.1
	c0.7,0.1,1.3,0.2,2,0.3v14.4c-0.9-0.2-1.8-0.3-2.7-0.3c-1-0.1-1.9-0.1-2.7-0.1c-1.6,0-3.2,0.2-4.8,0.6c-1.5,0.4-3,1-4.4,1.7
	c-1.3,0.7-2.5,1.7-3.5,2.9v35.9L664.9,126.8z"/>
<circle class="st0" cx="82.7" cy="82.7" r="82.7"/>
<path class="st1" d="M97.6,63.4C86,53.6,74.2,51.9,63.5,58.5c-9.8,6-14.5,18.6-11.7,30.9c2.8,12.2,11.3,19.7,23.9,20.9
	c10.8,1.2,21.1-4.7,25.5-14.5H81.3V74.4h57.3v58.3h-20.9v-18.6c-15,16.9-32.8,21.3-52.9,16.9c-12.6-2.6-23.6-10.3-30.3-21.4
	C19.8,86.3,26.9,54.1,49.9,40c22-13.5,55-8.3,66.6,10.7L97.6,63.4z"/>
<path class="st2" d="M138.6,74.4c-4,7.5-17.3,30.3-45.6,42.5c-14.2,6-29.6,8.4-44.9,7c10.4,7.1,23,10.2,35.5,8.9
	c20.2-2.4,31.8-15.8,34.2-18.7v18.6h20.9V74.4z"/>
</svg>
