<svg id="Capa_1" data-name="Capa 1" xmlns="http://www.w3.org/2000/svg" viewBox="0 0 698.89 165.45"><defs><style>.cls-1{fill:#fff;}.cls-2{fill:#cfe20e;}.cls-3{fill:#01262d;}</style></defs><path class="cls-1" d="M222.54,134.48q-13,0-21.75-4a27.31,27.31,0,0,1-13.16-12.29q-4.42-8.29-4.43-21.32,0-13.26,4.55-21.67a28.31,28.31,0,0,1,13.09-12.44q8.53-4,20.4-4a66.27,66.27,0,0,1,8.38.53,67.55,67.55,0,0,1,8.24,1.57v9a60,60,0,0,0-8.19-1.62,62.34,62.34,0,0,0-7.68-.48,35.75,35.75,0,0,0-15,2.85,19.68,19.68,0,0,0-9.44,9.26q-3.25,6.41-3.25,17.07,0,10.17,3.08,16.47a19.19,19.19,0,0,0,9.18,9.21q6.1,2.89,15.27,2.9,3.41,0,6.51-.27c2.07-.19,4-.43,5.75-.73l-4.35,4.16V97.74h10V133c-3.14.5-6.07.88-8.81,1.13S225.34,134.48,222.54,134.48Z" transform="translate(-2.11 -6.95)"/><path class="cls-1" d="M275.4,134.78a26,26,0,0,1-12.79-3,20.24,20.24,0,0,1-8.44-9.21q-3-6.21-3-15.92t3-16a19.93,19.93,0,0,1,8.39-9.21,29.11,29.11,0,0,1,25.78,0,19.91,19.91,0,0,1,8.38,9.21q3,6.19,2.95,15.91t-3,15.92a19.93,19.93,0,0,1-8.43,9.26A26.19,26.19,0,0,1,275.4,134.78Zm0-8.26a13.91,13.91,0,0,0,7.25-1.82,11.65,11.65,0,0,0,4.71-6.16Q289,114.21,289,106.7t-1.65-12a11.67,11.67,0,0,0-4.71-6.18,13.82,13.82,0,0,0-7.25-1.83,14,14,0,0,0-7.26,1.8,11.54,11.54,0,0,0-4.71,6.13q-1.65,4.34-1.65,11.84t1.63,12a11.59,11.59,0,0,0,4.7,6.21A13.84,13.84,0,0,0,275.4,126.52Z" transform="translate(-2.11 -6.95)"/><path class="cls-1" d="M328,133.78V73.22H304.58V59.7h63V73.22H344.27v60.56Z" transform="translate(-2.11 -6.95)"/><path class="cls-1" d="M367.39,133.78V79h13.07l1.2,7.06h.8a14.23,14.23,0,0,1,6.11-5.93,18.62,18.62,0,0,1,8.36-1.88c.83,0,1.63,0,2.4.1a17,17,0,0,1,2.05.3V93.09a18.18,18.18,0,0,0-2.68-.33c-.95-.05-1.86-.07-2.73-.07a20.55,20.55,0,0,0-4.75.57A17,17,0,0,0,386.77,95a12.54,12.54,0,0,0-3.46,2.88v35.89Z" transform="translate(-2.11 -6.95)"/><path class="cls-1" d="M421.1,134.78q-8.4,0-13.09-4.38A14.93,14.93,0,0,1,403.33,119c0-5.18,1.8-9.21,5.38-12.12s9.39-4.62,17.4-5.15l11.51-1,1.7,8.81-11.61,1q-4.6.34-6.63,2.1a6,6,0,0,0-2,4.8A5.83,5.83,0,0,0,420.9,122a8,8,0,0,0,5.41,1.63,13.93,13.93,0,0,0,4.5-.78,10.79,10.79,0,0,0,4.21-2.67v-20a11.91,11.91,0,0,0-1.23-5.9,6.89,6.89,0,0,0-4-3.08,23.23,23.23,0,0,0-7.29-.93,55.67,55.67,0,0,0-7.15.53,44.48,44.48,0,0,0-7.66,1.68v-12a56.67,56.67,0,0,1,8.78-1.72,73.47,73.47,0,0,1,8.89-.58,40.35,40.35,0,0,1,14.29,2.15,15.1,15.1,0,0,1,8.23,7.19q2.65,5,2.66,13.69v32.58H437.47l-1.1-5.45h-.75a14.33,14.33,0,0,1-6.26,4.9A21.73,21.73,0,0,1,421.1,134.78Z" transform="translate(-2.11 -6.95)"/><path class="cls-1" d="M462,133.78V79h13.17l1.05,5.56H477a20.84,20.84,0,0,1,7.16-4.76,23.66,23.66,0,0,1,8.91-1.65,21.12,21.12,0,0,1,9.63,2.13,15,15,0,0,1,6.64,6.86q2.4,4.73,2.4,12.48v34.14h-16V100.65c0-3.31-.68-5.59-2-6.86a8,8,0,0,0-5.66-1.9,14.7,14.7,0,0,0-3.63.47,13.53,13.53,0,0,0-3.5,1.48,12.27,12.27,0,0,0-3,2.5v37.44Z" transform="translate(-2.11 -6.95)"/><path class="cls-1" d="M539.28,134.83a68.12,68.12,0,0,1-9.14-.6,52.14,52.14,0,0,1-8.33-1.8V120.72a54.65,54.65,0,0,0,8.36,1.82,62.71,62.71,0,0,0,8.91.63c3.6,0,6.15-.48,7.63-1.43a4.46,4.46,0,0,0,2.23-4,4.11,4.11,0,0,0-1.1-3.1,8,8,0,0,0-3.86-1.6l-8.91-1.6q-7.71-1.45-11.21-5.36t-3.5-10.46A15.13,15.13,0,0,1,526.69,83q6.33-4.82,19.44-4.81a65.78,65.78,0,0,1,7.79.45,51,51,0,0,1,6.83,1.25V91.59a46.36,46.36,0,0,0-6.81-1.36,59.21,59.21,0,0,0-7.35-.45,24.28,24.28,0,0,0-7,.78,6.83,6.83,0,0,0-3.43,2,4.3,4.3,0,0,0-1,2.7,3.86,3.86,0,0,0,1.1,2.85,7.79,7.79,0,0,0,3.81,1.7l8.91,1.61q7.31,1.35,11,5t3.72,10.78a15.17,15.17,0,0,1-6.38,12.89Q551,134.84,539.28,134.83Z" transform="translate(-2.11 -6.95)"/><path class="cls-1" d="M566.86,91.59V79H606V91.59Zm8.91,42.19V75.12a26.1,26.1,0,0,1,2.8-12.52,18.63,18.63,0,0,1,8.28-8,29.8,29.8,0,0,1,13.49-2.76q2.16,0,4.11.15c1.3.1,2.58.25,3.85.45V65c-1-.14-1.89-.24-2.78-.3s-1.81-.1-2.77-.1q-5.81,0-8.49,2.35c-1.78,1.57-2.68,4-2.68,7.46v59.41Z" transform="translate(-2.11 -6.95)"/><path class="cls-1" d="M639.08,134.83q-10.3,0-17-3a19.76,19.76,0,0,1-9.89-9.26Q609,116.31,609,106.35A35.69,35.69,0,0,1,612,91a21,21,0,0,1,8.66-9.57,27.4,27.4,0,0,1,13.79-3.25,24.34,24.34,0,0,1,13.06,3.28,20.2,20.2,0,0,1,8,9.69,40.49,40.49,0,0,1,2.7,15.71V111H618.11v-9.16h27.78l-2.55,1a30,30,0,0,0-1-8.61,8.15,8.15,0,0,0-3-4.56,8.88,8.88,0,0,0-5-1.35,9.2,9.2,0,0,0-5.13,1.35A8.37,8.37,0,0,0,626,94.16a27.87,27.87,0,0,0-1.07,8.59v6.41a18.34,18.34,0,0,0,1.47,8,8.67,8.67,0,0,0,5.06,4.28,29.88,29.88,0,0,0,9.89,1.3,50,50,0,0,0,6.73-.48c2.35-.31,4.71-.74,7.08-1.27v12a72,72,0,0,1-8.28,1.43A73.31,73.31,0,0,1,639.08,134.83Z" transform="translate(-2.11 -6.95)"/><path class="cls-1" d="M667,133.78V79h13.07l1.2,7.06h.8a14.18,14.18,0,0,1,6.11-5.93,18.61,18.61,0,0,1,8.35-1.88c.84,0,1.64,0,2.41.1a17.3,17.3,0,0,1,2,.3V93.09a18.35,18.35,0,0,0-2.68-.33c-1-.05-1.86-.07-2.73-.07a20.48,20.48,0,0,0-4.75.57A17.2,17.2,0,0,0,686.38,95a12.5,12.5,0,0,0-3.45,2.88v35.89Z" transform="translate(-2.11 -6.95)"/><circle class="cls-2" cx="82.73" cy="82.73" r="82.73"/><path class="cls-1" d="M99.74,70.33c-11.62-9.82-23.42-11.46-34.11-4.91C55.87,71.41,51.1,84,53.91,96.28,56.69,108.46,65.25,116,77.8,117.22a24.89,24.89,0,0,0,25.5-14.53H83.44V81.3h57.32v58.3H119.89V121c-15,16.9-32.79,21.34-52.94,16.94a46.56,46.56,0,0,1-30.34-21.36C21.87,93.21,29,61.05,52.05,46.9c22-13.53,55-8.33,66.56,10.71Z" transform="translate(-2.11 -6.95)"/><path class="cls-3" d="M140.76,81.3c-4,7.49-17.33,30.34-45.63,42.5a92.7,92.7,0,0,1-44.92,7,52.84,52.84,0,0,0,35.53,8.85c20.19-2.36,31.78-15.81,34.15-18.69V139.6h20.87Z" transform="translate(-2.11 -6.95)"/></svg>