<svg id="Capa_1" data-name="Capa 1" xmlns="http://www.w3.org/2000/svg" viewBox="0 0 390.21 94.15"><defs><style>.cls-1{fill:#fff;}.cls-2{fill:#01262d;}</style></defs><path class="cls-1" d="M66.38,41.65C56.69,33.46,46.86,32.1,38,37.56c-8.13,5-12.1,15.44-9.76,25.71S37.64,79.68,48.1,80.73A20.74,20.74,0,0,0,69.34,68.62H52.79V50.79h47.77V99.38H83.17V83.87C70.69,98,55.85,101.65,39.05,98a38.81,38.81,0,0,1-25.28-17.8C1.48,60.72,7.43,33.92,26.64,22.12,45,10.84,72.46,15.18,82.1,31.05Z" transform="translate(-7.35 -6.19)"/><path class="cls-1" d="M66.38,41.65C56.69,33.46,46.86,32.1,38,37.56c-8.13,5-12.1,15.44-9.76,25.71S37.64,79.68,48.1,80.73A20.74,20.74,0,0,0,69.34,68.62H52.79V50.79h47.77V99.38H83.17V83.87C70.69,98,55.85,101.65,39.05,98a38.81,38.81,0,0,1-25.28-17.8C1.48,60.72,7.43,33.92,26.64,22.12,45,10.84,72.46,15.18,82.1,31.05Z" transform="translate(-7.35 -6.19)"/><circle class="cls-1" cx="112.45" cy="22.24" r="22.24"/><path class="cls-2" d="M131.67,15.6S104.89,29.09,105,29.11c3.42.69,6.84,1.4,10.26,2.07a.79.79,0,0,1,.74.73c.47,2.5,1,5,1.51,7.5.21,1.05.43,2.1.67,3.31C122.74,33.58,127.2,24.59,131.67,15.6Z" transform="translate(-7.35 -6.19)"/><path class="cls-1" d="M164.48,99.56V50.11H148.13V41.53h42.39v8.58H174.13V99.56Z" transform="translate(-7.35 -6.19)"/><path class="cls-1" d="M192.6,99.56V56.78h7.84l.74,5.88h.47a10.63,10.63,0,0,1,4.37-4.9A12.24,12.24,0,0,1,212,56.27c.53,0,1,0,1.51.06a8.51,8.51,0,0,1,1.24.18v8.86a11.61,11.61,0,0,0-1.65-.2c-.55,0-1.11,0-1.68,0a12,12,0,0,0-3.65.57,10.59,10.59,0,0,0-3.27,1.69A9.49,9.49,0,0,0,202,70V99.56Z" transform="translate(-7.35 -6.19)"/><path class="cls-1" d="M226.63,100.3a11.63,11.63,0,0,1-8.49-3.19q-3.28-3.19-3.28-8.85,0-6,3.59-9.31T230,75l7.72-.74,1.3,5.76-8,.71a8.28,8.28,0,0,0-5.18,2,6.08,6.08,0,0,0-1.68,4.55,5.88,5.88,0,0,0,1.51,4.43,5.68,5.68,0,0,0,4.09,1.45,8.46,8.46,0,0,0,3.37-.77,7.63,7.63,0,0,0,3.18-2.8V71.88a10.94,10.94,0,0,0-.88-4.83,5.05,5.05,0,0,0-2.8-2.49,14.5,14.5,0,0,0-5-.72,33.34,33.34,0,0,0-4.81.39,34.19,34.19,0,0,0-5.19,1.18V57.72a35.58,35.58,0,0,1,5.74-1.19,45.52,45.52,0,0,1,6-.42,23.28,23.28,0,0,1,9.08,1.53,10.28,10.28,0,0,1,5.33,5.08,22,22,0,0,1,1.74,9.59V99.56h-7.76l-.7-4.59h-.48a9.73,9.73,0,0,1-4.19,4.08A13.15,13.15,0,0,1,226.63,100.3Z" transform="translate(-7.35 -6.19)"/><path class="cls-1" d="M251.37,99.56V56.78h7.92l.7,4.63h.47a13.44,13.44,0,0,1,10.94-5.3,13,13,0,0,1,6,1.38A9.58,9.58,0,0,1,281.65,62a19.62,19.62,0,0,1,1.55,8.55v29h-9.45V71.25q0-3.81-1.53-5.22a5.71,5.71,0,0,0-4-1.41,9.42,9.42,0,0,0-2.59.39,8.72,8.72,0,0,0-2.63,1.3,8.16,8.16,0,0,0-2.16,2.35v30.9Z" transform="translate(-7.35 -6.19)"/><path class="cls-1" d="M298.49,100.34a36.19,36.19,0,0,1-5.47-.41,29,29,0,0,1-5.11-1.28V91a32.34,32.34,0,0,0,10.43,1.72q3.84,0,5.62-1.41a4.71,4.71,0,0,0,1.79-3.92,4.6,4.6,0,0,0-1.06-3.29,6.93,6.93,0,0,0-3.18-1.69l-5.06-1.29a13.38,13.38,0,0,1-7.29-4.18,12,12,0,0,1-2.39-7.82A11.76,11.76,0,0,1,291,59.72q4.22-3.6,12.26-3.61a39.78,39.78,0,0,1,4.8.28,37.5,37.5,0,0,1,4.17.74v7.69a27.71,27.71,0,0,0-4.13-.83,39.54,39.54,0,0,0-4.37-.23,13.48,13.48,0,0,0-4.85.72,5.46,5.46,0,0,0-2.62,2,4.68,4.68,0,0,0-.81,2.66,4.23,4.23,0,0,0,1,3,6.89,6.89,0,0,0,3.16,1.69l5.06,1.25c3.4.89,5.87,2.29,7.43,4.22a12.17,12.17,0,0,1,2.33,7.86,11.91,11.91,0,0,1-4.25,9.68Q305.94,100.34,298.49,100.34Z" transform="translate(-7.35 -6.19)"/><path class="cls-1" d="M313.94,64.35V56.78h26.15v7.57Zm6.55,35.21V51.06a18.76,18.76,0,0,1,1.76-8.51,11.9,11.9,0,0,1,5.28-5.31,18.91,18.91,0,0,1,8.8-1.83c.84,0,1.72,0,2.64.1a25.91,25.91,0,0,1,2.65.33v7.73c-.73-.13-1.4-.22-2-.28s-1.28-.08-2-.08q-4,0-5.88,1.73t-1.88,5.57V99.56Z" transform="translate(-7.35 -6.19)"/><path class="cls-1" d="M359.07,100.34a24,24,0,0,1-11-2.24A13.68,13.68,0,0,1,341.62,91q-2.07-4.91-2.08-12.94a32.79,32.79,0,0,1,2-12.33,15,15,0,0,1,5.71-7.23,16.21,16.21,0,0,1,8.88-2.36,13.38,13.38,0,0,1,13.64,9.63,37.08,37.08,0,0,1,1.81,12.57v2.86H346.41v-6h17.68l-1.45.78a33.1,33.1,0,0,0-.79-8.21,7.23,7.23,0,0,0-2.25-4,5.66,5.66,0,0,0-3.51-1.12,6.14,6.14,0,0,0-3.67,1.12,7.39,7.39,0,0,0-2.41,4,30.36,30.36,0,0,0-.86,8.21v4a20.67,20.67,0,0,0,1.12,7.59,7.06,7.06,0,0,0,3.53,3.92,14.93,14.93,0,0,0,6.41,1.16,27.53,27.53,0,0,0,4.47-.38,48.87,48.87,0,0,0,4.9-1.07v7.68a47.23,47.23,0,0,1-5.39,1.14A37.41,37.41,0,0,1,359.07,100.34Z" transform="translate(-7.35 -6.19)"/><path class="cls-1" d="M375.46,99.56V56.78h7.84l.74,5.88h.47a10.63,10.63,0,0,1,4.37-4.9,12.25,12.25,0,0,1,5.95-1.49c.52,0,1,0,1.51.06a8.56,8.56,0,0,1,1.23.18v8.86a11.61,11.61,0,0,0-1.65-.2c-.55,0-1.11,0-1.68,0a12,12,0,0,0-3.65.57,10.59,10.59,0,0,0-3.27,1.69A9.45,9.45,0,0,0,384.91,70V99.56Z" transform="translate(-7.35 -6.19)"/></svg>